<?xml version='1.0' encoding='utf-8'?>
<!DOCTYPE svg PUBLIC '-//W3C//DTD SVG 1.1//EN' 'http://www.w3.org/Graphics/SVG/1.1/DTD/svg11.dtd'>
<svg version="1.1" xmlns="http://www.w3.org/2000/svg" viewBox="0 0 512 512" xmlns:xlink="http://www.w3.org/1999/xlink" enable-background="new 0 0 512 512">
  <g>
    <g>
      <path d="m448.5,137.9l-126.2-121.2c-3.8-3.6-8.9-5.7-14.1-5.7h-230.5c-11.3,0-20.4,9.1-20.4,20.4v449.2c0,11.3 9.1,20.4 20.4,20.4h356.7c11.3,0 20.4-9.1 20.4-20.4v-328c5.68434e-14-5.5-2.3-10.8-6.3-14.7zm-34.6,322.3h-43.1v-132.3c0-11.3-9.1-20.4-20.4-20.4-11.3,0-20.4,9.1-20.4,20.4v132.2h-53.6v-132.2c0-11.3-9.1-20.4-20.4-20.4-11.3,0-20.4,9.1-20.4,20.4v132.2h-53.6v-132.2c0-11.3-9.1-20.4-20.4-20.4-11.3,0-20.4,9.1-20.4,20.4v132.2h-43.1v-408.3h201.8l114,109.5v298.9z"/>
    </g>
  </g>
</svg>
