<?xml version="1.0" encoding="utf-8"?>
<!-- Generator: Adobe Illustrator 25.4.1, SVG Export Plug-In . SVG Version: 6.00 Build 0)  -->
<svg version="1.1" id="Слой_1" xmlns="http://www.w3.org/2000/svg" xmlns:xlink="http://www.w3.org/1999/xlink" x="0px" y="0px"
	 viewBox="0 0 800 800" style="enable-background:new 0 0 800 800;" xml:space="preserve">
<g id="Complete">
	<g id="arrow-right">
		<g>
			<path d="M541.7,600c-8.6,0-17.3-3.3-23.8-10c-12.9-13.1-12.7-34.2,0.5-47.1L664.1,400L518.3,257.1c-13.1-12.9-13.4-34-0.5-47.1
				c12.9-13.1,34-13.4,47.1-0.5l170,166.7c6.4,6.3,10,14.8,10,23.8c0,9-3.6,17.5-10,23.8L565,590.5C558.5,596.8,550.1,600,541.7,600
				z"/>
			<path d="M635,433.3H78.3C59.9,433.3,45,418.4,45,400s14.9-33.3,33.3-33.3H635c18.4,0,33.3,14.9,33.3,33.3S653.4,433.3,635,433.3z
				"/>
		</g>
	</g>
</g>
</svg>
