<svg width="18" height="20" viewBox="0 0 18 20" fill="none" xmlns="http://www.w3.org/2000/svg">
<path d="M9 0.25C9.43098 0.25 9.8443 0.421205 10.149 0.725951C10.4538 1.0307 10.625 1.44402 10.625 1.875V18.125C10.625 18.556 10.4538 18.9693 10.149 19.274C9.8443 19.5788 9.43098 19.75 9 19.75C8.56902 19.75 8.1557 19.5788 7.85095 19.274C7.54621 18.9693 7.375 18.556 7.375 18.125V1.875C7.375 1.44402 7.54621 1.0307 7.85095 0.725951C8.1557 0.421205 8.56902 0.25 9 0.25ZM15.5 6.75C15.931 6.75 16.3443 6.92121 16.649 7.22595C16.9538 7.5307 17.125 7.94402 17.125 8.375V18.125C17.125 18.556 16.9538 18.9693 16.649 19.274C16.3443 19.5788 15.931 19.75 15.5 19.75C15.069 19.75 14.6557 19.5788 14.351 19.274C14.0462 18.9693 13.875 18.556 13.875 18.125V8.375C13.875 7.94402 14.0462 7.5307 14.351 7.22595C14.6557 6.92121 15.069 6.75 15.5 6.75ZM4.125 11.625C4.125 11.194 3.95379 10.7807 3.64905 10.476C3.3443 10.1712 2.93098 10 2.5 10C2.06902 10 1.6557 10.1712 1.35095 10.476C1.0462 10.7807 0.875 11.194 0.875 11.625V18.125C0.875 18.556 1.0462 18.9693 1.35095 19.274C1.6557 19.5788 2.06902 19.75 2.5 19.75C2.93098 19.75 3.3443 19.5788 3.64905 19.274C3.95379 18.9693 4.125 18.556 4.125 18.125V11.625Z" fill="black"/>
</svg>
