<svg width="26" height="26" viewBox="0 0 26 26" fill="none" xmlns="http://www.w3.org/2000/svg">
<path d="M12.901 7.33795V5.76195L11.249 5.48295C11.127 4.94295 10.914 4.43695 10.627 3.98195L11.598 2.61695L10.483 1.50195L9.11795 2.47295C8.66395 2.18595 8.15795 1.97395 7.61695 1.85095L7.33895 0.199951H5.76195L5.48395 1.85095C4.94295 1.97395 4.43695 2.18595 3.98295 2.47295L2.61795 1.50195L1.50295 2.61695L2.47395 3.98195C2.18695 4.43695 1.97395 4.94295 1.85195 5.48295L0.199951 5.76195V7.33795L1.85195 7.61595C1.97395 8.15695 2.18695 8.66295 2.47395 9.11795L1.50295 10.483L2.61795 11.597L3.98295 10.626C4.43695 10.913 4.94295 11.126 5.48395 11.248L5.76195 12.9H7.33895L7.61695 11.248C8.15795 11.126 8.66395 10.913 9.11795 10.626L10.483 11.597L11.598 10.483L10.627 9.11795C10.914 8.66295 11.127 8.15695 11.249 7.61595L12.901 7.33795ZM6.54995 9.05595C5.16695 9.05595 4.04495 7.93395 4.04495 6.54995C4.04495 5.16595 5.16695 4.04395 6.54995 4.04395C7.93395 4.04395 9.05595 5.16595 9.05595 6.54995C9.05595 7.93395 7.93395 9.05595 6.54995 9.05595ZM23.8749 16.3766L25.8 15.1818L24.9925 13.2087L22.782 13.7062C22.3649 13.1104 21.8453 12.5806 21.235 12.1455L21.7513 9.93965L19.7851 9.11545L18.5741 11.03C17.836 10.8998 17.0939 10.9007 16.3766 11.021L15.1817 9.09585L13.2086 9.90335L13.7061 12.1139C13.1103 12.531 12.5805 13.0506 12.1454 13.6609L9.93955 13.1446L9.11535 15.1108L11.0299 16.3218C10.8997 17.0599 10.9006 17.8021 11.0209 18.5193L9.09575 19.7142L9.90325 21.6873L12.1138 21.1898C12.5309 21.7856 13.0505 22.3154 13.6608 22.7505L13.1445 24.9563L15.1107 25.7805L16.3217 23.866C17.0598 23.9962 17.802 23.9953 18.5192 23.875L19.7141 25.8L21.6872 24.9925L21.1897 22.782C21.7855 22.3649 22.3153 21.8453 22.7504 21.235L24.9562 21.7513L25.7803 19.7851L23.8659 18.5741C23.996 17.836 23.9952 17.0939 23.8749 16.3766ZM20.5734 18.7582C19.8498 20.4843 17.8638 21.2971 16.1377 20.5734C14.4116 19.8497 13.5988 17.8638 14.3225 16.1377C15.0462 14.4116 17.0321 13.5988 18.7582 14.3225C20.4843 15.0462 21.297 17.032 20.5734 18.7582Z" fill="black"/>
</svg>
