<?xml version="1.0" encoding="iso-8859-1"?>
<!-- Generator: Adobe Illustrator 18.0.0, SVG Export Plug-In . SVG Version: 6.00 Build 0)  -->
<!DOCTYPE svg PUBLIC "-//W3C//DTD SVG 1.1//EN" "http://www.w3.org/Graphics/SVG/1.1/DTD/svg11.dtd">
<svg version="1.1" id="Capa_1" xmlns="http://www.w3.org/2000/svg" xmlns:xlink="http://www.w3.org/1999/xlink" x="0px" y="0px"
	 viewBox="0 0 220 220" style="enable-background:new 0 0 220 220;" xml:space="preserve">
<path style="fill:#020202;" d="M203.129,16.871h-30.016V0h-25v16.871H122.5V0h-25v16.871H71.887V0h-25v16.871H16.871v30.016H0v25
	h16.871V97.5H0v25h16.871v25.613H0v25h16.871v30.016h30.016V220h25v-16.871H97.5V220h25v-16.871h25.613V220h25v-16.871h30.016
	v-30.016H220v-25h-16.871V122.5H220v-25h-16.871V71.887H220v-25h-16.871V16.871z M153.633,153.634H66.365V66.366h87.267V153.634z"/>
<g>
</g>
<g>
</g>
<g>
</g>
<g>
</g>
<g>
</g>
<g>
</g>
<g>
</g>
<g>
</g>
<g>
</g>
<g>
</g>
<g>
</g>
<g>
</g>
<g>
</g>
<g>
</g>
<g>
</g>
</svg>
