<svg width="37" height="30" viewBox="0 0 37 30" fill="none" xmlns="http://www.w3.org/2000/svg">
<path fill-rule="evenodd" clip-rule="evenodd" d="M9.53125 23.5063C7.42358 23.5063 5.6875 24.946 5.6875 26.6938C5.6875 28.4417 7.42358 29.8813 9.53125 29.8813C11.6389 29.8813 13.375 28.4417 13.375 26.6938C13.375 24.946 11.6389 23.5063 9.53125 23.5063ZM9.53125 25.6313C10.254 25.6313 10.8125 26.0945 10.8125 26.6938C10.8125 27.2932 10.254 27.7563 9.53125 27.7563C8.80846 27.7563 8.25 27.2932 8.25 26.6938C8.25 26.0945 8.80846 25.6313 9.53125 25.6313Z" fill="#505050"/>
<path fill-rule="evenodd" clip-rule="evenodd" d="M28.75 23.5063C26.6423 23.5063 24.9062 24.946 24.9062 26.6938C24.9062 28.4417 26.6423 29.8813 28.75 29.8813C30.8577 29.8813 32.5937 28.4417 32.5937 26.6938C32.5937 24.946 30.8577 23.5063 28.75 23.5063ZM28.75 25.6313C29.4728 25.6313 30.0312 26.0945 30.0312 26.6938C30.0312 27.2932 29.4728 27.7563 28.75 27.7563C28.0272 27.7563 27.4687 27.2932 27.4687 26.6938C27.4687 26.0945 28.0272 25.6313 28.75 25.6313Z" fill="#505050"/>
<path fill-rule="evenodd" clip-rule="evenodd" d="M1.84375 0.131348C1.13613 0.131348 0.5625 0.60705 0.5625 1.19385C0.5625 1.78065 1.13613 2.25635 1.84375 2.25635H3.35522L6.75104 16.3262C5.3791 16.8151 4.40625 17.949 4.40625 19.2563C4.40625 21.0038 6.14273 22.4438 8.25 22.4438H31.3275C32.0351 22.4438 32.6088 21.9681 32.6088 21.3813C32.6088 20.7945 32.0351 20.3188 31.3275 20.3188H8.25C7.51803 20.3188 6.96875 19.8634 6.96875 19.2563C6.96875 18.6493 7.51803 18.1938 8.25 18.1938H28.765H32.6088C33.2393 18.1941 33.7764 17.8139 33.875 17.2974L36.0922 5.60986C36.2152 4.96466 35.6136 4.38106 34.8259 4.38135H6.48077L5.66248 0.986328C5.54309 0.489418 5.01725 0.131528 4.40625 0.131348H1.84375ZM6.99377 6.50635H33.327L31.5127 16.0688L9.30103 16.0626L6.99377 6.50635ZM12.0938 8.63135C11.3861 8.63135 10.8125 9.10705 10.8125 9.69385C10.8125 10.2806 11.3861 10.7563 12.0938 10.7563H28.765C29.4726 10.7563 30.0463 10.2806 30.0463 9.69385C30.0463 9.10705 29.4726 8.63135 28.765 8.63135H12.0938ZM14.6563 11.8188C13.9486 11.8188 13.375 12.2945 13.375 12.8813C13.375 13.4681 13.9486 13.9438 14.6563 13.9438H26.2025C26.9101 13.9438 27.4838 13.4681 27.4838 12.8813C27.4838 12.2945 26.9101 11.8188 26.2025 11.8188H14.6563Z" fill="#505050"/>
</svg>
