<svg width="23" height="25" viewBox="0 0 23 25" fill="none" xmlns="http://www.w3.org/2000/svg">
<path d="M1.4375 12.408C1.4375 15.26 2.49765 17.9951 4.38474 20.0118C6.27182 22.0285 8.83126 23.1614 11.5 23.1614C14.1687 23.1614 16.7282 22.0285 18.6153 20.0118C20.5023 17.9951 21.5625 15.26 21.5625 12.408C21.5625 9.55599 20.5023 6.82081 18.6153 4.80415C16.7282 2.78749 14.1687 1.65454 11.5 1.65454C8.83126 1.65454 6.27182 2.78749 4.38474 4.80415C2.49765 6.82081 1.4375 9.55599 1.4375 12.408Z" fill="#4CAF50"/>
<path d="M10.0625 7.28735H12.9375V17.5287H10.0625V7.28735Z" fill="white"/>
<path d="M6.70825 10.8718H16.2916V13.9442H6.70825V10.8718Z" fill="white"/>
</svg>
