<svg width="24" height="21" viewBox="0 0 24 21" fill="none" xmlns="http://www.w3.org/2000/svg">
<path fill-rule="evenodd" clip-rule="evenodd" d="M7.49866 2.65246C10.3061 2.25474 13.6937 2.25474 16.5012 2.65246C19.052 3.01382 21.0285 4.80404 21.4066 6.73236C21.8643 9.06671 21.8643 11.8916 21.4066 14.226C21.0285 16.1543 19.052 17.9445 16.5013 18.3059C13.6937 18.7036 10.3061 18.7036 7.49866 18.3059C4.94795 17.9445 2.97142 16.1543 2.59324 14.226C2.13545 11.8916 2.1355 9.06671 2.59325 6.73237C2.97138 4.80402 4.94794 3.01382 7.49866 2.65246ZM16.8052 0.507211C13.7961 0.0809298 10.2039 0.0809298 7.19475 0.507211C3.92893 0.96987 1.05843 3.29972 0.467067 6.31545C-0.0446599 8.92512 -0.0447163 12.0332 0.467077 14.6428C1.05848 17.6586 3.92891 19.9884 7.19475 20.4511C10.2039 20.8774 13.7961 20.8774 16.8052 20.4511C20.071 19.9884 22.9415 17.6586 23.5329 14.6428C24.0445 12.0332 24.0445 8.92512 23.5329 6.31546C22.9415 3.29971 20.071 0.96987 16.8052 0.507211ZM10.4342 5.24444C10.1017 5.02283 9.67433 5.00217 9.32207 5.19069C8.96982 5.3792 8.74992 5.7463 8.74992 6.14583V14.8125C8.74992 15.212 8.96982 15.5792 9.32207 15.7677C9.67433 15.9562 10.1017 15.9355 10.4342 15.7139L16.9342 11.3806C17.2356 11.1796 17.4166 10.8414 17.4166 10.4792C17.4166 10.1169 17.2356 9.77868 16.9342 9.57772L10.4342 5.24444ZM14.3802 10.4792L10.9166 12.7883V8.17006L14.3802 10.4792Z" fill="black" fill-opacity="0.6"/>
</svg>
